<svg width="10" height="12" viewBox="0 0 10 12" fill="none" xmlns="http://www.w3.org/2000/svg">
<path d="M0 11.3203H9.16016V12.0039H0V11.3203Z" fill="#505762"/>
<path d="M6.59668 0H8.30566V6.65137C8.30566 7.40788 8.1416 8.04134 7.81348 8.55176C7.48535 9.06217 7.03874 9.44727 6.47363 9.70703C5.91309 9.96224 5.28646 10.0898 4.59375 10.0898C3.87826 10.0898 3.24023 9.96224 2.67969 9.70703C2.11914 9.44727 1.67708 9.06217 1.35352 8.55176C1.03451 8.04134 0.875 7.40788 0.875 6.65137V0H2.58398V6.65137C2.58398 7.12988 2.66602 7.52409 2.83008 7.83398C2.99414 8.13932 3.22656 8.36491 3.52734 8.51074C3.82812 8.65658 4.18359 8.72949 4.59375 8.72949C5.00391 8.72949 5.3571 8.65658 5.65332 8.51074C5.9541 8.36491 6.18652 8.13932 6.35059 7.83398C6.51465 7.52409 6.59668 7.12988 6.59668 6.65137V0Z" fill="#505762"/>
</svg>
